<?xml version="1.0" encoding="UTF-8" standalone="no"?>
<!-- Created with Inkscape (http://www.inkscape.org/) -->

<svg
   xmlns:dc="http://purl.org/dc/elements/1.1/"
   xmlns:cc="http://creativecommons.org/ns#"
   xmlns:rdf="http://www.w3.org/1999/02/22-rdf-syntax-ns#"
   xmlns:svg="http://www.w3.org/2000/svg"
   xmlns="http://www.w3.org/2000/svg"
   xmlns:sodipodi="http://sodipodi.sourceforge.net/DTD/sodipodi-0.dtd"
   xmlns:inkscape="http://www.inkscape.org/namespaces/inkscape"
   width="210mm"
   height="297mm"
   viewBox="0 0 744.09448819 1052.3622047"
   id="svg3336"
   version="1.1"
   inkscape:version="0.91 r13725"
   sodipodi:docname="Bottom.svg">
  <defs
     id="defs3338">
    <marker
       style="overflow:visible"
       refY="0.0"
       refX="0.0"
       orient="auto"
       id="DistanceX">
      <path
         id="path3490"
         style="stroke:#000000; stroke-width:0.5"
         d="M 3,-3 L -3,3 M 0,-5 L  0,5" />
    </marker>
    <pattern
       y="0"
       x="0"
       width="8"
       patternUnits="userSpaceOnUse"
       id="Hatch"
       height="8">
      <path
         id="path3493"
         stroke-width="0.25"
         stroke="#000000"
         linecap="square"
         d="M8 4 l-4,4" />
      <path
         id="path3495"
         stroke-width="0.25"
         stroke="#000000"
         linecap="square"
         d="M6 2 l-4,4" />
      <path
         id="path3497"
         stroke-width="0.25"
         stroke="#000000"
         linecap="square"
         d="M4 0 l-4,4" />
    </pattern>
    <symbol
       id="*Model_Space" />
    <symbol
       id="*Paper_Space" />
    <symbol
       id="*Paper_Space0" />
  </defs>
  <sodipodi:namedview
     id="base"
     pagecolor="#ffffff"
     bordercolor="#666666"
     borderopacity="1.0"
     inkscape:pageopacity="0.0"
     inkscape:pageshadow="2"
     inkscape:zoom="1.7796244"
     inkscape:cx="371.42857"
     inkscape:cy="554.28572"
     inkscape:document-units="px"
     inkscape:current-layer="layer1"
     showgrid="false"
     inkscape:snap-page="true"
     inkscape:window-width="1440"
     inkscape:window-height="797"
     inkscape:window-x="0"
     inkscape:window-y="1"
     inkscape:window-maximized="1" />
  <metadata
     id="metadata3341">
    <rdf:RDF>
      <cc:Work
         rdf:about="">
        <dc:format>image/svg+xml</dc:format>
        <dc:type
           rdf:resource="http://purl.org/dc/dcmitype/StillImage" />
        <dc:title></dc:title>
      </cc:Work>
    </rdf:RDF>
  </metadata>
  <g
     inkscape:label="Layer 1"
     inkscape:groupmode="layer"
     id="layer1">
    <g
       id="g3547"
       transform="translate(68.128571,-246.66572)">
      <g
         id="g3502"
         inkscape:label="Acrylic Outline">
        <path
           id="path3504"
           style="fill:none;stroke:#ff0000;stroke-linecap:round"
           d="m 47.771258,636.40559 511.057482,0"
           inkscape:connector-curvature="0" />
        <path
           id="path3506"
           style="fill:none;stroke:#ff0000;stroke-linecap:round"
           d="m 580.38662,657.96348 0,173.55747"
           inkscape:connector-curvature="0" />
        <path
           id="path3508"
           style="fill:none;stroke:#ff0000;stroke-linecap:round"
           d="m 558.82874,853.07882 -511.057493,0"
           inkscape:connector-curvature="0" />
        <path
           id="path3510"
           style="fill:none;stroke:#ff0000;stroke-linecap:round"
           d="m 26.213382,831.52093 0,-173.55747"
           inkscape:connector-curvature="0" />
        <path
           id="path3512"
           style="fill:none;stroke:#ff0000;stroke-linecap:round"
           d="m 558.82874,853.07882 a 21.557876,21.557876 0 0 0 21.55788,-21.55787"
           inkscape:connector-curvature="0" />
        <path
           id="path3514"
           style="fill:none;stroke:#ff0000;stroke-linecap:round"
           d="m 26.213382,831.52095 a 21.557876,21.557876 0 0 0 21.557874,21.55787"
           inkscape:connector-curvature="0" />
        <path
           id="path3516"
           style="fill:none;stroke:#ff0000;stroke-linecap:round"
           d="M 47.771258,636.40559 A 21.557876,21.557876 0 0 0 26.213382,657.96346"
           inkscape:connector-curvature="0" />
        <path
           id="path3518"
           style="fill:none;stroke:#ff0000;stroke-linecap:round"
           d="M 580.38662,657.96346 A 21.557876,21.557876 0 0 0 558.82874,636.40559"
           inkscape:connector-curvature="0" />
      </g>
      <g
         id="g3520"
         inkscape:label="0">
        <path
           id="path3522"
           style="fill:none;stroke:#000000;stroke-linecap:round"
           d="m 563.21928,659.24221 a 5.66928,5.66928 0 1 0 -11.33856,0 5.66928,5.66928 0 1 0 11.33856,0 z"
           inkscape:connector-curvature="0" />
        <path
           id="path3524"
           style="fill:none;stroke:#000000;stroke-linecap:round"
           d="m 563.21928,830.24221 a 5.66928,5.66928 0 1 0 -11.33856,0 5.66928,5.66928 0 1 0 11.33856,0 z"
           inkscape:connector-curvature="0" />
      </g>
      <g
         id="g3526"
         inkscape:label="Acrylic Mounting Holes">
        <path
           id="path3528"
           style="fill:none;stroke:#000000;stroke-linecap:round"
           d="m 54.71928,744.74221 a 5.66928,5.66928 0 1 0 -11.33856,0 5.66928,5.66928 0 1 0 11.33856,0 z"
           inkscape:connector-curvature="0" />
        <path
           id="path3530"
           style="fill:none;stroke:#000000;stroke-linecap:round"
           d="m 563.21928,659.24221 a 5.66928,5.66928 0 1 0 -11.33856,0 5.66928,5.66928 0 1 0 11.33856,0 z"
           inkscape:connector-curvature="0" />
        <path
           id="path3532"
           style="fill:none;stroke:#000000;stroke-linecap:round"
           d="m 563.21928,830.24221 a 5.66928,5.66928 0 1 0 -11.33856,0 5.66928,5.66928 0 1 0 11.33856,0 z"
           inkscape:connector-curvature="0" />
      </g>
    </g>
  </g>
</svg>
