<?xml version="1.0" encoding="UTF-8" standalone="no"?>
<svg
   xmlns:dc="http://purl.org/dc/elements/1.1/"
   xmlns:cc="http://creativecommons.org/ns#"
   xmlns:rdf="http://www.w3.org/1999/02/22-rdf-syntax-ns#"
   xmlns:svg="http://www.w3.org/2000/svg"
   xmlns="http://www.w3.org/2000/svg"
   xmlns:sodipodi="http://sodipodi.sourceforge.net/DTD/sodipodi-0.dtd"
   xmlns:inkscape="http://www.inkscape.org/namespaces/inkscape"
   version="1.1"
   width="146.69437mm"
   height="30.171947mm"
   id="svg989"
   viewBox="0 0 554.43541 114.03569"
   sodipodi:docname="house3_5.svg"
   inkscape:version="0.92.4 (5da689c313, 2019-01-14)">
  <metadata
     id="metadata995">
    <rdf:RDF>
      <cc:Work
         rdf:about="">
        <dc:format>image/svg+xml</dc:format>
        <dc:type
           rdf:resource="http://purl.org/dc/dcmitype/StillImage" />
        <dc:title></dc:title>
      </cc:Work>
    </rdf:RDF>
  </metadata>
  <defs
     id="defs993" />
  <sodipodi:namedview
     pagecolor="#ffffff"
     bordercolor="#666666"
     borderopacity="1"
     objecttolerance="10"
     gridtolerance="10"
     guidetolerance="10"
     inkscape:pageopacity="0"
     inkscape:pageshadow="2"
     inkscape:window-width="1920"
     inkscape:window-height="1001"
     id="namedview991"
     showgrid="false"
     units="mm"
     fit-margin-top="0"
     fit-margin-left="0"
     fit-margin-right="0"
     fit-margin-bottom="0"
     inkscape:zoom="2.7147091"
     inkscape:cx="259.64499"
     inkscape:cy="55.884952"
     inkscape:window-x="-9"
     inkscape:window-y="-9"
     inkscape:window-maximized="1"
     inkscape:current-layer="svg989" />
  <path
     d="m 184.93776,0.37795275 h 184.5598"
     style="fill:none;stroke:#ff0000;stroke-width:1.13385827;stroke-linecap:butt;stroke-linejoin:bevel;stroke-miterlimit:4;stroke-dasharray:none;stroke-opacity:1"
     id="path815"
     inkscape:connector-curvature="0" />
  <path
     d="M 369.49756,0.37795275 V 113.65776"
     style="fill:none;stroke:#ff0000;stroke-width:1.13385827;stroke-linecap:butt;stroke-linejoin:bevel;stroke-miterlimit:4;stroke-dasharray:none;stroke-opacity:1"
     id="path817"
     inkscape:connector-curvature="0" />
  <path
     d="M 369.49756,113.65776 H 184.93776"
     style="fill:none;stroke:#ff0000;stroke-width:1.13385827;stroke-linecap:butt;stroke-linejoin:bevel;stroke-miterlimit:4;stroke-dasharray:none;stroke-opacity:1"
     id="path819"
     inkscape:connector-curvature="0" />
  <path
     d="M 184.93776,113.65776 V 0.37795275"
     style="fill:none;stroke:#ff0000;stroke-width:1.13385827;stroke-linecap:butt;stroke-linejoin:bevel;stroke-miterlimit:4;stroke-dasharray:none;stroke-opacity:1"
     id="path821"
     inkscape:connector-curvature="0" />
  <path
     d="m 352.08806,64.258052 c 0,-1.5656 -1.2691,-2.8346 -2.8346,-2.8346 -1.5656,0 -2.8347,1.269 -2.8347,2.8346 0,1.5653 1.2691,2.8347 2.8347,2.8347 1.5655,0 2.8346,-1.2694 2.8346,-2.8347 z"
     style="fill:none;stroke:#ff0000;stroke-width:1.13385827;stroke-linecap:butt;stroke-linejoin:bevel;stroke-miterlimit:4;stroke-dasharray:none;stroke-opacity:1"
     id="path823"
     inkscape:connector-curvature="0" />
  <path
     d="m 344.84356,64.310552 c 0,-1.5656 -1.2694,-2.8347 -2.8347,-2.8347 -1.5655,0 -2.8346,1.2691 -2.8346,2.8347 0,1.5655 1.2691,2.8346 2.8344,2.8346 1.5655,0 2.8349,-1.2691 2.8349,-2.8346 z"
     style="fill:none;stroke:#ff0000;stroke-width:1.13385827;stroke-linecap:butt;stroke-linejoin:bevel;stroke-miterlimit:4;stroke-dasharray:none;stroke-opacity:1"
     id="path825"
     inkscape:connector-curvature="0" />
  <path
     d="m 344.84356,57.118452 c 0,-1.5653 -1.2694,-2.8344 -2.8347,-2.8344 -1.5655,0 -2.8346,1.2691 -2.8346,2.8344 0,1.5653 1.2691,2.8346 2.8344,2.8346 1.5655,0 2.8349,-1.2693 2.8349,-2.8346 z"
     style="fill:none;stroke:#ff0000;stroke-width:1.13385827;stroke-linecap:butt;stroke-linejoin:bevel;stroke-miterlimit:4;stroke-dasharray:none;stroke-opacity:1"
     id="path827"
     inkscape:connector-curvature="0" />
  <path
     d="m 352.02686,57.185952 c 0,-1.5653 -1.2694,-2.8344 -2.8347,-2.8344 -1.5656,0 -2.8346,1.2691 -2.8346,2.8344 0,1.5655 1.269,2.8346 2.8346,2.8346 1.5653,0 2.8347,-1.2691 2.8347,-2.8346 z"
     style="fill:none;stroke:#ff0000;stroke-width:1.13385827;stroke-linecap:butt;stroke-linejoin:bevel;stroke-miterlimit:4;stroke-dasharray:none;stroke-opacity:1"
     id="path829"
     inkscape:connector-curvature="0" />
  <path
     d="m 352.10736,49.955852 c 0,-1.5656 -1.2691,-2.8346 -2.8347,-2.8346 -1.5655,0 -2.8346,1.269 -2.8346,2.8346 0,1.5656 1.2691,2.8347 2.8346,2.8347 1.5656,0 2.8347,-1.2691 2.8347,-2.8347 z"
     style="fill:none;stroke:#ff0000;stroke-width:1.13385827;stroke-linecap:butt;stroke-linejoin:bevel;stroke-miterlimit:4;stroke-dasharray:none;stroke-opacity:1"
     id="path831"
     inkscape:connector-curvature="0" />
  <path
     d="m 344.87696,49.955852 c 0,-1.5656 -1.269,-2.8346 -2.8346,-2.8346 -1.5656,0 -2.8346,1.269 -2.8346,2.8346 0,1.5656 1.269,2.8347 2.8346,2.8347 1.5656,0 2.8346,-1.2691 2.8346,-2.8347 z"
     style="fill:none;stroke:#ff0000;stroke-width:1.13385827;stroke-linecap:butt;stroke-linejoin:bevel;stroke-miterlimit:4;stroke-dasharray:none;stroke-opacity:1"
     id="path833"
     inkscape:connector-curvature="0" />
  <path
     d="m 351.94606,71.512252 c 0,-1.5656 -1.2691,-2.8347 -2.8347,-2.8347 -1.5655,0 -2.8346,1.2691 -2.8346,2.8347 0,1.5655 1.2691,2.8346 2.8346,2.8346 1.5656,0 2.8347,-1.2691 2.8347,-2.8346 z"
     style="fill:none;stroke:#ff0000;stroke-width:1.13385827;stroke-linecap:butt;stroke-linejoin:bevel;stroke-miterlimit:4;stroke-dasharray:none;stroke-opacity:1"
     id="path835"
     inkscape:connector-curvature="0" />
  <path
     d="m 344.85006,71.485252 c 0,-1.5655 -1.2691,-2.8346 -2.8346,-2.8346 -1.5656,0 -2.8347,1.2691 -2.8347,2.8346 0,1.5656 1.2691,2.8347 2.8347,2.8347 1.5655,0 2.8346,-1.2691 2.8346,-2.8347 z"
     style="fill:none;stroke:#ff0000;stroke-width:1.13385827;stroke-linecap:butt;stroke-linejoin:bevel;stroke-miterlimit:4;stroke-dasharray:none;stroke-opacity:1"
     id="path837"
     inkscape:connector-curvature="0" />
  <path
     d="m 352.05346,42.725552 c 0,-1.5656 -1.2691,-2.8347 -2.8346,-2.8347 -1.5653,0 -2.8347,1.2691 -2.8347,2.8347 0,1.5656 1.2691,2.8346 2.8347,2.8346 1.5655,0 2.8346,-1.269 2.8346,-2.8346 z"
     style="fill:none;stroke:#ff0000;stroke-width:1.13385827;stroke-linecap:butt;stroke-linejoin:bevel;stroke-miterlimit:4;stroke-dasharray:none;stroke-opacity:1"
     id="path839"
     inkscape:connector-curvature="0" />
  <path
     d="m 344.85006,42.671952 c 0,-1.5656 -1.2691,-2.8346 -2.8346,-2.8346 -1.5656,0 -2.8347,1.269 -2.8347,2.8346 0,1.5653 1.2691,2.8347 2.8347,2.8347 1.5655,0 2.8346,-1.2694 2.8346,-2.8347 z"
     style="fill:none;stroke:#ff0000;stroke-width:1.13385827;stroke-linecap:butt;stroke-linejoin:bevel;stroke-miterlimit:4;stroke-dasharray:none;stroke-opacity:1"
     id="path841"
     inkscape:connector-curvature="0" />
  <path
     d="m 363.89296,9.3747528 c 0,-1.8785 -1.5228,-3.4015 -3.4013,-3.4015 -1.8788,0 -3.4016,1.523 -3.4019,3.4015 0,1.8785992 1.5231,3.4015992 3.4016,3.4015992 1.8788,0 3.4016,-1.5228 3.4016,-3.4015992 z"
     style="fill:none;stroke:#ff0000;stroke-width:1.13385827;stroke-linecap:butt;stroke-linejoin:bevel;stroke-miterlimit:4;stroke-dasharray:none;stroke-opacity:1"
     id="path843"
     inkscape:connector-curvature="0" />
  <path
     d="m 363.87306,104.88106 c 0,-1.8788 -1.5227,-3.4015 -3.4015,-3.4015 -1.8786,0 -3.4016,1.5227 -3.4016,3.4015 0,1.8786 1.523,3.4016 3.4016,3.4016 1.8785,0 3.4015,-1.523 3.4015,-3.4016 z"
     style="fill:none;stroke:#ff0000;stroke-width:1.13385827;stroke-linecap:butt;stroke-linejoin:bevel;stroke-miterlimit:4;stroke-dasharray:none;stroke-opacity:1"
     id="path845"
     inkscape:connector-curvature="0" />
  <path
     d="m 197.57496,104.88106 c 0,-1.8788 -1.5231,-3.4015 -3.4016,-3.4015 -1.8785,0 -3.4016,1.5227 -3.4016,3.4015 0,1.8786 1.5228,3.4016 3.4016,3.4016 1.8785,0 3.4016,-1.523 3.4016,-3.4016 z"
     style="fill:none;stroke:#ff0000;stroke-width:1.13385827;stroke-linecap:butt;stroke-linejoin:bevel;stroke-miterlimit:4;stroke-dasharray:none;stroke-opacity:1"
     id="path847"
     inkscape:connector-curvature="0" />
  <path
     d="m 197.57496,9.3747528 c 0,-1.8785 -1.5231,-3.4015 -3.4016,-3.4015 -1.8785,0 -3.4016,1.523 -3.4016,3.4015 0,1.8785992 1.5228,3.4015992 3.4016,3.4015992 1.8785,0 3.4016,-1.5228 3.4016,-3.4015992 z"
     style="fill:none;stroke:#ff0000;stroke-width:1.13385827;stroke-linecap:butt;stroke-linejoin:bevel;stroke-miterlimit:4;stroke-dasharray:none;stroke-opacity:1"
     id="path849"
     inkscape:connector-curvature="0" />
  <path
     d="m 296.33906,102.03566 c 0,-1.5655 -1.2691,-2.834608 -2.8346,-2.834608 -1.5656,0 -2.8347,1.269108 -2.8347,2.834608 0,1.5656 1.2691,2.8347 2.8347,2.8347 1.5655,0 2.8346,-1.2691 2.8346,-2.8347 z"
     style="fill:none;stroke:#ff0000;stroke-width:1.13385827;stroke-linecap:butt;stroke-linejoin:bevel;stroke-miterlimit:4;stroke-dasharray:none;stroke-opacity:1"
     id="path851"
     inkscape:connector-curvature="0" />
  <path
     d="m 289.25246,102.03566 c 0,-1.5655 -1.2691,-2.834608 -2.8346,-2.834608 -1.5656,0 -2.8347,1.269108 -2.8347,2.834608 0,1.5656 1.2691,2.8347 2.8347,2.8347 1.5655,0 2.8346,-1.2691 2.8346,-2.8347 z"
     style="fill:none;stroke:#ff0000;stroke-width:1.13385827;stroke-linecap:butt;stroke-linejoin:bevel;stroke-miterlimit:4;stroke-dasharray:none;stroke-opacity:1"
     id="path853"
     inkscape:connector-curvature="0" />
  <path
     d="m 281.93286,102.00306 c 0,-1.5655 -1.2691,-2.834608 -2.8347,-2.834608 -1.5653,0 -2.8343,1.269108 -2.8343,2.834608 0,1.5656 1.269,2.8347 2.8343,2.8347 1.5656,0 2.8347,-1.2691 2.8347,-2.8347 z"
     style="fill:none;stroke:#ff0000;stroke-width:1.13385827;stroke-linecap:butt;stroke-linejoin:bevel;stroke-miterlimit:4;stroke-dasharray:none;stroke-opacity:1"
     id="path855"
     inkscape:connector-curvature="0" />
  <path
     d="m 274.83746,102.00306 c 0,-1.5655 -1.2694,-2.834608 -2.8347,-2.834608 -1.5655,0 -2.8346,1.269108 -2.8346,2.834608 0,1.5656 1.2691,2.8347 2.8346,2.8347 1.5653,0 2.8347,-1.2691 2.8347,-2.8347 z"
     style="fill:none;stroke:#ff0000;stroke-width:1.13385827;stroke-linecap:butt;stroke-linejoin:bevel;stroke-miterlimit:4;stroke-dasharray:none;stroke-opacity:1"
     id="path857"
     inkscape:connector-curvature="0" />
  <path
     d="m 267.59096,102.00306 c 0,-1.5655 -1.2691,-2.834608 -2.8347,-2.834608 -1.5655,0 -2.8346,1.269108 -2.8346,2.834608 0,1.5656 1.2691,2.8347 2.8346,2.8347 1.5656,0 2.8347,-1.2691 2.8347,-2.8347 z"
     style="fill:none;stroke:#ff0000;stroke-width:1.13385827;stroke-linecap:butt;stroke-linejoin:bevel;stroke-miterlimit:4;stroke-dasharray:none;stroke-opacity:1"
     id="path859"
     inkscape:connector-curvature="0" />
  <path
     d="m 369.49756,113.65776 h 184.5599"
     style="fill:none;stroke:#ff0000;stroke-width:1.13385827;stroke-linecap:butt;stroke-linejoin:bevel;stroke-miterlimit:4;stroke-dasharray:none;stroke-opacity:1"
     id="path861"
     inkscape:connector-curvature="0" />
  <path
     d="M 554.05746,113.65776 V 0.37795275"
     style="fill:none;stroke:#ff0000;stroke-width:1.13385827;stroke-linecap:butt;stroke-linejoin:bevel;stroke-miterlimit:4;stroke-dasharray:none;stroke-opacity:1"
     id="path863"
     inkscape:connector-curvature="0" />
  <path
     d="M 554.05746,0.37795275 H 369.49756"
     style="fill:none;stroke:#ff0000;stroke-width:1.13385827;stroke-linecap:butt;stroke-linejoin:bevel;stroke-miterlimit:4;stroke-dasharray:none;stroke-opacity:1"
     id="path865"
     inkscape:connector-curvature="0" />
  <path
     d="m 382.98516,9.3747528 c 0,-2.3482 -1.9038,-4.2519 -4.252,-4.2519 -2.3482,0 -4.252,1.9037 -4.252,4.2519 0,2.3482992 1.9038,4.2519992 4.252,4.2519992 2.3482,0 4.252,-1.9037 4.252,-4.2519992 z"
     style="fill:none;stroke:#ff0000;stroke-width:1.13385827;stroke-linecap:butt;stroke-linejoin:bevel;stroke-miterlimit:4;stroke-dasharray:none;stroke-opacity:1"
     id="path867"
     inkscape:connector-curvature="0" />
  <path
     d="m 382.98516,104.88106 c 0,-2.3485 -1.9038,-4.2519 -4.252,-4.2519 -2.3482,0 -4.252,1.9034 -4.252,4.2519 0,2.3483 1.9038,4.252 4.252,4.252 2.3482,0 4.252,-1.9037 4.252,-4.252 z"
     style="fill:none;stroke:#ff0000;stroke-width:1.13385827;stroke-linecap:butt;stroke-linejoin:bevel;stroke-miterlimit:4;stroke-dasharray:none;stroke-opacity:1"
     id="path869"
     inkscape:connector-curvature="0" />
  <path
     d="m 549.28326,104.88106 c 0,-2.3485 -1.9037,-4.2519 -4.2519,-4.2519 -2.3482,0 -4.252,1.9034 -4.252,4.2519 0,2.3483 1.9038,4.252 4.252,4.252 2.3482,0 4.2519,-1.9037 4.2519,-4.252 z"
     style="fill:none;stroke:#ff0000;stroke-width:1.13385827;stroke-linecap:butt;stroke-linejoin:bevel;stroke-miterlimit:4;stroke-dasharray:none;stroke-opacity:1"
     id="path871"
     inkscape:connector-curvature="0" />
  <path
     d="m 549.30316,9.3747528 c 0,-2.3482 -1.9035,-4.2519 -4.2517,-4.2519 -2.3485,0 -4.252,1.9037 -4.2523,4.2519 0,2.3482992 1.9038,4.2519992 4.252,4.2519992 2.3485,0 4.252,-1.9037 4.252,-4.2519992 z"
     style="fill:none;stroke:#ff0000;stroke-width:1.13385827;stroke-linecap:butt;stroke-linejoin:bevel;stroke-miterlimit:4;stroke-dasharray:none;stroke-opacity:1"
     id="path873"
     inkscape:connector-curvature="0" />
  <path
     d="m 543.68256,86.709352 v -58.79"
     style="fill:none;stroke:#ff0000;stroke-width:1.13385827;stroke-linecap:butt;stroke-linejoin:bevel;stroke-miterlimit:4;stroke-dasharray:none;stroke-opacity:1"
     id="path875"
     inkscape:connector-curvature="0" />
  <path
     d="m 369.49756,40.096452 h 4.252"
     style="fill:none;stroke:#ff0000;stroke-width:1.13385827;stroke-linecap:butt;stroke-linejoin:bevel;stroke-miterlimit:4;stroke-dasharray:none;stroke-opacity:1"
     id="path877"
     inkscape:connector-curvature="0" />
  <path
     d="m 373.74956,40.096452 c 2.3482,0 4.252,-1.9038 4.252,-4.252"
     style="fill:none;stroke:#ff0000;stroke-width:1.13385827;stroke-linecap:butt;stroke-linejoin:bevel;stroke-miterlimit:4;stroke-dasharray:none;stroke-opacity:1"
     id="path879"
     inkscape:connector-curvature="0" />
  <path
     d="m 378.00156,35.844452 v -5.8085"
     style="fill:none;stroke:#ff0000;stroke-width:1.13385827;stroke-linecap:butt;stroke-linejoin:bevel;stroke-miterlimit:4;stroke-dasharray:none;stroke-opacity:1"
     id="path881"
     inkscape:connector-curvature="0" />
  <path
     d="m 382.25346,25.783952 c -1.1276,0 -2.209,0.4479 -3.0064,1.2453 -0.7974,0.7974 -1.2455,1.8791 -1.2455,3.0067"
     style="fill:none;stroke:#ff0000;stroke-width:1.13385827;stroke-linecap:butt;stroke-linejoin:bevel;stroke-miterlimit:4;stroke-dasharray:none;stroke-opacity:1"
     id="path883"
     inkscape:connector-curvature="0" />
  <path
     d="m 382.25346,25.783952 h 2.8347"
     style="fill:none;stroke:#ff0000;stroke-width:1.13385827;stroke-linecap:butt;stroke-linejoin:bevel;stroke-miterlimit:4;stroke-dasharray:none;stroke-opacity:1"
     id="path885"
     inkscape:connector-curvature="0" />
  <path
     d="m 385.08816,25.783952 c 1.802,0 3.4081,-1.1358 4.0087,-2.8346"
     style="fill:none;stroke:#ff0000;stroke-width:1.13385827;stroke-linecap:butt;stroke-linejoin:bevel;stroke-miterlimit:4;stroke-dasharray:none;stroke-opacity:1"
     id="path887"
     inkscape:connector-curvature="0" />
  <path
     d="m 393.10566,20.114752 c -1.8017,0 -3.4081,1.1358 -4.0088,2.8346"
     style="fill:none;stroke:#ff0000;stroke-width:1.13385827;stroke-linecap:butt;stroke-linejoin:bevel;stroke-miterlimit:4;stroke-dasharray:none;stroke-opacity:1"
     id="path889"
     inkscape:connector-curvature="0" />
  <path
     d="m 525.20326,27.919352 h 18.4793"
     style="fill:none;stroke:#ff0000;stroke-width:1.13385827;stroke-linecap:butt;stroke-linejoin:bevel;stroke-miterlimit:4;stroke-dasharray:none;stroke-opacity:1"
     id="path891"
     inkscape:connector-curvature="0" />
  <path
     d="m 520.95126,24.142852 c 0,1.0015 0.4482,1.9623 1.2456,2.6705 0.7974,0.7082 1.8788,1.106 3.0064,1.106"
     style="fill:none;stroke:#ff0000;stroke-width:1.13385827;stroke-linecap:butt;stroke-linejoin:bevel;stroke-miterlimit:4;stroke-dasharray:none;stroke-opacity:1"
     id="path893"
     inkscape:connector-curvature="0" />
  <path
     d="m 521.15086,86.709252 h 22.5317"
     style="fill:none;stroke:#ff0000;stroke-width:1.13385827;stroke-linecap:butt;stroke-linejoin:bevel;stroke-miterlimit:4;stroke-dasharray:none;stroke-opacity:1"
     id="path895"
     inkscape:connector-curvature="0" />
  <path
     d="m 521.15086,86.709252 c -1.1276,0 -2.209,0.383 -3.0064,1.0644 -0.7974,0.6815 -1.2456,1.6057 -1.2456,2.5693"
     style="fill:none;stroke:#ff0000;stroke-width:1.13385827;stroke-linecap:butt;stroke-linejoin:bevel;stroke-miterlimit:4;stroke-dasharray:none;stroke-opacity:1"
     id="path897"
     inkscape:connector-curvature="0" />
  <path
     d="M 516.89886,102.03566 V 90.342952"
     style="fill:none;stroke:#ff0000;stroke-width:1.13385827;stroke-linecap:butt;stroke-linejoin:bevel;stroke-miterlimit:4;stroke-dasharray:none;stroke-opacity:1"
     id="path899"
     inkscape:connector-curvature="0" />
  <path
     d="m 512.64696,106.28766 c 2.3482,0 4.2519,-1.9038 4.2519,-4.252"
     style="fill:none;stroke:#ff0000;stroke-width:1.13385827;stroke-linecap:butt;stroke-linejoin:bevel;stroke-miterlimit:4;stroke-dasharray:none;stroke-opacity:1"
     id="path901"
     inkscape:connector-curvature="0" />
  <path
     d="m 447.45036,106.28766 h 65.1966"
     style="fill:none;stroke:#ff0000;stroke-width:1.13385827;stroke-linecap:butt;stroke-linejoin:bevel;stroke-miterlimit:4;stroke-dasharray:none;stroke-opacity:1"
     id="path903"
     inkscape:connector-curvature="0" />
  <path
     d="m 443.19836,102.03566 c 0,1.1276 0.4482,2.2091 1.2456,3.0065 0.7974,0.7973 1.8788,1.2455 3.0064,1.2455"
     style="fill:none;stroke:#ff0000;stroke-width:1.13385827;stroke-linecap:butt;stroke-linejoin:bevel;stroke-miterlimit:4;stroke-dasharray:none;stroke-opacity:1"
     id="path905"
     inkscape:connector-curvature="0" />
  <path
     d="M 443.19836,102.03566 V 95.232552"
     style="fill:none;stroke:#ff0000;stroke-width:1.13385827;stroke-linecap:butt;stroke-linejoin:bevel;stroke-miterlimit:4;stroke-dasharray:none;stroke-opacity:1"
     id="path907"
     inkscape:connector-curvature="0" />
  <path
     d="m 443.19836,95.232552 c 0,-1.1276 -0.4478,-2.2093 -1.2452,-3.0067 -0.7974,-0.7974 -1.8791,-1.2453 -3.0067,-1.2453"
     style="fill:none;stroke:#ff0000;stroke-width:1.13385827;stroke-linecap:butt;stroke-linejoin:bevel;stroke-miterlimit:4;stroke-dasharray:none;stroke-opacity:1"
     id="path909"
     inkscape:connector-curvature="0" />
  <path
     d="m 410.59996,90.980552 h 28.3465"
     style="fill:none;stroke:#ff0000;stroke-width:1.13385827;stroke-linecap:butt;stroke-linejoin:bevel;stroke-miterlimit:4;stroke-dasharray:none;stroke-opacity:1"
     id="path911"
     inkscape:connector-curvature="0" />
  <path
     d="m 406.34796,86.728552 c 0,1.1277 0.4482,2.2091 1.2456,3.0065 0.7974,0.7974 1.8788,1.2455 3.0064,1.2455"
     style="fill:none;stroke:#ff0000;stroke-width:1.13385827;stroke-linecap:butt;stroke-linejoin:bevel;stroke-miterlimit:4;stroke-dasharray:none;stroke-opacity:1"
     id="path913"
     inkscape:connector-curvature="0" />
  <path
     d="m 406.34796,86.728552 v -8.848"
     style="fill:none;stroke:#ff0000;stroke-width:1.13385827;stroke-linecap:butt;stroke-linejoin:bevel;stroke-miterlimit:4;stroke-dasharray:none;stroke-opacity:1"
     id="path915"
     inkscape:connector-curvature="0" />
  <path
     d="m 369.49756,73.628552 h 32.5985"
     style="fill:none;stroke:#ff0000;stroke-width:1.13385827;stroke-linecap:butt;stroke-linejoin:bevel;stroke-miterlimit:4;stroke-dasharray:none;stroke-opacity:1"
     id="path917"
     inkscape:connector-curvature="0" />
  <path
     d="m 406.34796,77.880552 c 0,-1.1276 -0.4478,-2.2091 -1.2452,-3.0064 -0.7974,-0.7974 -1.8791,-1.2456 -3.0067,-1.2456"
     style="fill:none;stroke:#ff0000;stroke-width:1.13385827;stroke-linecap:butt;stroke-linejoin:bevel;stroke-miterlimit:4;stroke-dasharray:none;stroke-opacity:1"
     id="path919"
     inkscape:connector-curvature="0" />
  <path
     d="m 520.95126,24.142852 v -11.1148"
     style="fill:none;stroke:#ff0000;stroke-width:1.13385827;stroke-linecap:butt;stroke-linejoin:bevel;stroke-miterlimit:4;stroke-dasharray:none;stroke-opacity:1"
     id="path921"
     inkscape:connector-curvature="0" />
  <path
     d="m 520.95126,13.028052 c 0,-1.1276 -0.4478,-2.2093 -1.2452,-3.006699 -0.7974,-0.7974002 -1.8788,-1.2452002 -3.0067,-1.2452002"
     style="fill:none;stroke:#ff0000;stroke-width:1.13385827;stroke-linecap:butt;stroke-linejoin:bevel;stroke-miterlimit:4;stroke-dasharray:none;stroke-opacity:1"
     id="path923"
     inkscape:connector-curvature="0" />
  <path
     d="m 398.31886,20.114752 c 2.3482,0 4.252,-1.9038 4.252,-4.252"
     style="fill:none;stroke:#ff0000;stroke-width:1.13385827;stroke-linecap:butt;stroke-linejoin:bevel;stroke-miterlimit:4;stroke-dasharray:none;stroke-opacity:1"
     id="path925"
     inkscape:connector-curvature="0" />
  <path
     d="m 393.10566,20.114752 h 5.2132"
     style="fill:none;stroke:#ff0000;stroke-width:1.13385827;stroke-linecap:butt;stroke-linejoin:bevel;stroke-miterlimit:4;stroke-dasharray:none;stroke-opacity:1"
     id="path927"
     inkscape:connector-curvature="0" />
  <path
     d="m 406.82276,8.7761528 h 109.8766"
     style="fill:none;stroke:#ff0000;stroke-width:1.13385827;stroke-linecap:butt;stroke-linejoin:bevel;stroke-miterlimit:4;stroke-dasharray:none;stroke-opacity:1"
     id="path929"
     inkscape:connector-curvature="0" />
  <path
     d="m 402.57086,15.862752 v -2.8347"
     style="fill:none;stroke:#ff0000;stroke-width:1.13385827;stroke-linecap:butt;stroke-linejoin:bevel;stroke-miterlimit:4;stroke-dasharray:none;stroke-opacity:1"
     id="path931"
     inkscape:connector-curvature="0" />
  <path
     d="m 406.82276,8.7761528 c -1.1276,0 -2.2093,0.4478 -3.0067,1.2452002 -0.7974,0.797399 -1.2452,1.879099 -1.2452,3.006699"
     style="fill:none;stroke:#ff0000;stroke-width:1.13385827;stroke-linecap:butt;stroke-linejoin:bevel;stroke-miterlimit:4;stroke-dasharray:none;stroke-opacity:1"
     id="path933"
     inkscape:connector-curvature="0" />
  <path
     d="M 0.37795275,0.37795275 H 184.93776"
     style="fill:none;stroke:#ff0000;stroke-width:1.13385827;stroke-linecap:butt;stroke-linejoin:bevel;stroke-miterlimit:4;stroke-dasharray:none;stroke-opacity:1"
     id="path935"
     inkscape:connector-curvature="0" />
  <path
     d="M 184.93776,113.65776 H 0.37795275"
     style="fill:none;stroke:#ff0000;stroke-width:1.13385827;stroke-linecap:butt;stroke-linejoin:bevel;stroke-miterlimit:4;stroke-dasharray:none;stroke-opacity:1"
     id="path937"
     inkscape:connector-curvature="0" />
  <path
     d="M 0.37795275,113.65776 V 0.37795275"
     style="fill:none;stroke:#ff0000;stroke-width:1.13385827;stroke-linecap:butt;stroke-linejoin:bevel;stroke-miterlimit:4;stroke-dasharray:none;stroke-opacity:1"
     id="path939"
     inkscape:connector-curvature="0" />
  <path
     d="m 13.865452,9.3747528 c 0,-2.3482 -1.9037,-4.2519 -4.2518992,-4.2519 -2.3482,0 -4.252,1.9037 -4.252,4.2519 0,2.3482992 1.9038,4.2519992 4.252,4.2519992 2.3481992,0 4.2518992,-1.9037 4.2518992,-4.2519992 z"
     style="fill:none;stroke:#ff0000;stroke-width:1.13385827;stroke-linecap:butt;stroke-linejoin:bevel;stroke-miterlimit:4;stroke-dasharray:none;stroke-opacity:1"
     id="path941"
     inkscape:connector-curvature="0" />
  <path
     d="m 13.865452,104.88106 c 0,-2.3485 -1.9037,-4.2519 -4.2518992,-4.2519 -2.3482,0 -4.252,1.9034 -4.252,4.2519 0,2.3483 1.9038,4.252 4.252,4.252 2.3481992,0 4.2518992,-1.9037 4.2518992,-4.252 z"
     style="fill:none;stroke:#ff0000;stroke-width:1.13385827;stroke-linecap:butt;stroke-linejoin:bevel;stroke-miterlimit:4;stroke-dasharray:none;stroke-opacity:1"
     id="path943"
     inkscape:connector-curvature="0" />
  <path
     d="m 180.16366,104.88106 c 0,-2.3485 -1.9037,-4.2519 -4.2519,-4.2519 -2.3483,0 -4.252,1.9034 -4.252,4.2519 0,2.3483 1.9037,4.252 4.252,4.252 2.3482,0 4.2519,-1.9037 4.2519,-4.252 z"
     style="fill:none;stroke:#ff0000;stroke-width:1.13385827;stroke-linecap:butt;stroke-linejoin:bevel;stroke-miterlimit:4;stroke-dasharray:none;stroke-opacity:1"
     id="path945"
     inkscape:connector-curvature="0" />
  <path
     d="m 180.18356,9.3747528 c 0,-2.3482 -1.9035,-4.2519 -4.2517,-4.2519 -2.3485,0 -4.252,1.9037 -4.2523,4.2519 0,2.3482992 1.9038,4.2519992 4.252,4.2519992 2.3485,0 4.252,-1.9037 4.252,-4.2519992 z"
     style="fill:none;stroke:#ff0000;stroke-width:1.13385827;stroke-linecap:butt;stroke-linejoin:bevel;stroke-miterlimit:4;stroke-dasharray:none;stroke-opacity:1"
     id="path947"
     inkscape:connector-curvature="0" />
  <path
     d="m 147.77926,28.163452 h 26.2488"
     style="fill:none;stroke:#ff0000;stroke-width:1.13385827;stroke-linecap:butt;stroke-linejoin:bevel;stroke-miterlimit:4;stroke-dasharray:none;stroke-opacity:1"
     id="path949"
     inkscape:connector-curvature="0" />
  <path
     d="m 174.02806,28.163452 v 58.3017"
     style="fill:none;stroke:#ff0000;stroke-width:1.13385827;stroke-linecap:butt;stroke-linejoin:bevel;stroke-miterlimit:4;stroke-dasharray:none;stroke-opacity:1"
     id="path951"
     inkscape:connector-curvature="0" />
  <path
     d="m 174.02806,86.465152 h -26.2488"
     style="fill:none;stroke:#ff0000;stroke-width:1.13385827;stroke-linecap:butt;stroke-linejoin:bevel;stroke-miterlimit:4;stroke-dasharray:none;stroke-opacity:1"
     id="path953"
     inkscape:connector-curvature="0" />
  <path
     d="m 147.77926,86.465152 v -58.3017"
     style="fill:none;stroke:#ff0000;stroke-width:1.13385827;stroke-linecap:butt;stroke-linejoin:bevel;stroke-miterlimit:4;stroke-dasharray:none;stroke-opacity:1"
     id="path955"
     inkscape:connector-curvature="0" />
  <path
     d="M 76.170752,97.908452 H 112.75436"
     style="fill:none;stroke:#ff0000;stroke-width:1.13385827;stroke-linecap:butt;stroke-linejoin:bevel;stroke-miterlimit:4;stroke-dasharray:none;stroke-opacity:1"
     id="path957"
     inkscape:connector-curvature="0" />
  <path
     d="m 112.75436,97.908452 v 7.710508"
     style="fill:none;stroke:#ff0000;stroke-width:1.13385827;stroke-linecap:butt;stroke-linejoin:bevel;stroke-miterlimit:4;stroke-dasharray:none;stroke-opacity:1"
     id="path959"
     inkscape:connector-curvature="0" />
  <path
     d="M 112.75436,105.61896 H 76.170752"
     style="fill:none;stroke:#ff0000;stroke-width:1.13385827;stroke-linecap:butt;stroke-linejoin:bevel;stroke-miterlimit:4;stroke-dasharray:none;stroke-opacity:1"
     id="path961"
     inkscape:connector-curvature="0" />
  <path
     d="M 76.170752,105.61896 V 97.908452"
     style="fill:none;stroke:#ff0000;stroke-width:1.13385827;stroke-linecap:butt;stroke-linejoin:bevel;stroke-miterlimit:4;stroke-dasharray:none;stroke-opacity:1"
     id="path963"
     inkscape:connector-curvature="0" />
</svg>
